<?xml version="1.0" standalone="no"?>
<!DOCTYPE svg PUBLIC "-//W3C//DTD SVG 20010904//EN"
 "http://www.w3.org/TR/2001/REC-SVG-20010904/DTD/svg10.dtd">
<svg version="1.0" xmlns="http://www.w3.org/2000/svg"
 width="500.000000pt" height="500.000000pt" viewBox="0 0 500.000000 500.000000"
 preserveAspectRatio="xMidYMid meet">
<metadata>
Created by potrace 1.14, written by Peter Selinger 2001-2017
</metadata>
<g transform="translate(0.000000,500.000000) scale(0.100000,-0.100000)"
fill="#000000" stroke="none">
<path d="M1242 4657 c-567 -325 -1012 -914 -1163 -1542 -17 -71 -17 -81 -4
-91 8 -6 15 -14 15 -17 0 -19 149 -213 202 -263 24 -22 81 -69 128 -105 47
-35 87 -66 90 -69 15 -15 80 -58 114 -75 41 -21 125 -98 190 -175 l38 -45 -7
60 c-4 33 -9 73 -11 90 -2 16 -7 38 -10 48 -3 10 -1 24 6 32 8 10 8 15 -1 21
-8 4 -9 3 -5 -4 4 -7 2 -12 -3 -12 -6 0 -11 7 -11 15 0 8 -9 30 -19 49 -11 19
-17 37 -14 40 8 8 43 -24 43 -39 0 -15 34 -55 47 -55 6 0 8 -11 6 -25 -4 -19
0 -25 18 -29 54 -12 63 -11 75 12 6 13 13 19 15 13 6 -16 69 -2 69 14 0 19 43
99 58 108 7 5 13 23 12 40 -5 81 -2 82 36 26 45 -67 107 -127 139 -135 14 -3
25 -10 25 -16 0 -5 15 -15 34 -23 25 -11 36 -23 41 -45 4 -17 10 -28 13 -26
15 9 45 -25 46 -53 1 -16 5 -29 10 -28 5 1 15 -9 23 -23 7 -14 13 -19 13 -12
0 7 5 10 12 6 8 -5 6 -10 -5 -19 -18 -13 -13 -24 28 -52 21 -14 36 -18 50 -12
28 11 35 11 35 -1 0 -5 -8 -10 -17 -10 -14 0 -14 -3 -5 -12 7 -7 20 -13 30
-13 11 0 18 -10 20 -28 2 -15 8 -25 13 -21 5 3 8 2 7 -3 -1 -4 3 -18 10 -30 7
-13 9 -23 5 -23 -4 0 -9 -13 -10 -29 -1 -16 -11 -49 -22 -73 -11 -23 -22 -52
-24 -63 -1 -11 -5 -24 -9 -30 -3 -5 -5 -21 -4 -34 2 -20 8 -24 42 -26 46 -3
81 9 112 37 12 12 22 18 22 14 0 -4 6 -1 14 6 8 7 12 17 9 21 -3 5 1 7 8 6 8
-2 24 2 37 9 12 7 26 10 31 7 18 -10 116 -26 168 -26 66 0 96 9 89 27 -3 7 3
18 12 23 11 7 12 11 4 11 -7 0 -10 5 -7 10 3 6 -1 17 -10 26 -11 11 -13 20 -6
27 12 12 3 37 -23 60 -87 75 -117 126 -143 238 -15 66 -14 71 3 91 27 29 100
63 234 109 229 80 259 103 262 206 1 65 -10 112 -52 218 -27 67 -29 75 -16
101 17 32 6 62 -37 102 -23 22 -28 23 -54 10 -23 -11 -29 -22 -35 -63 -9 -65
-26 -97 -49 -90 -9 3 -20 2 -23 -3 -3 -5 -17 -7 -32 -4 -15 3 -29 -1 -34 -8
-12 -20 -44 36 -46 83 -1 23 4 50 12 61 15 21 80 43 156 53 29 3 45 10 41 16
-3 6 -7 23 -8 39 -3 31 -21 58 -39 58 -6 0 -2 -7 8 -15 26 -20 18 -25 -40 -28
-27 -1 -55 -8 -62 -14 -21 -20 -32 -15 -32 13 0 22 3 24 14 15 10 -9 16 -9 21
-1 5 8 11 7 23 -2 13 -11 15 -10 9 14 -9 33 5 43 51 39 l34 -3 -17 26 c-10 14
-20 26 -24 26 -3 0 -21 13 -39 28 l-33 27 20 49 c33 75 24 142 -11 86 -8 -12
-24 -20 -39 -20 -19 0 -36 -13 -65 -51 -21 -27 -52 -65 -67 -84 -44 -54 2 -60
70 -9 17 13 40 24 50 23 17 0 17 -1 0 -8 -10 -4 -18 -11 -17 -15 1 -5 -4 -13
-12 -17 -11 -7 -10 -11 2 -19 8 -5 10 -10 5 -10 -6 0 -11 -9 -12 -20 -1 -11 3
-20 8 -20 6 0 8 -4 4 -10 -3 -5 -12 -7 -21 -3 -8 3 -14 2 -13 -3 4 -22 -2 -32
-18 -28 -19 5 -47 -41 -40 -67 2 -8 2 -11 0 -6 -3 4 -9 7 -14 7 -17 0 -4 -118
15 -139 20 -22 38 -89 26 -96 -4 -2 -5 -17 -2 -31 4 -22 2 -26 -11 -21 -10 4
-20 0 -26 -10 -7 -14 -10 -13 -16 6 -3 11 -10 19 -15 16 -5 -3 -12 6 -16 21
-7 25 -8 26 -20 9 -15 -20 -13 -21 -30 34 -3 10 -8 10 -17 2 -10 -8 -17 -7
-25 1 -7 7 -12 8 -12 2 0 -6 5 -15 11 -21 9 -9 7 -10 -10 -6 -11 3 -21 10 -21
17 0 6 -5 3 -11 -7 -10 -17 -12 -17 -29 -2 -16 15 -18 14 -24 -11 -4 -15 -2
-32 3 -37 13 -13 15 -47 4 -47 -5 0 -21 25 -37 56 -30 58 -52 58 -35 0 6 -20
5 -32 -1 -34 -6 -2 -7 -9 -4 -14 4 -7 2 -8 -4 -4 -7 4 -12 17 -12 30 0 13 -10
31 -22 42 -21 19 -21 19 -14 -1 6 -17 4 -17 -18 4 l-25 23 6 -22 c4 -15 2 -21
-4 -17 -15 9 -23 -16 -12 -34 13 -22 11 -59 -5 -59 -13 0 -27 40 -41 118 -10
51 -22 37 -19 -23 2 -32 -1 -55 -7 -55 -6 0 -7 -5 -4 -10 4 -6 10 -8 15 -5 5
3 11 -4 15 -15 3 -11 17 -23 31 -26 29 -7 30 -13 7 -30 -15 -10 -21 -10 -37 4
-18 16 -18 16 -7 -6 7 -13 10 -26 7 -30 -3 -3 -6 0 -6 7 0 6 -8 11 -17 9 -13
-2 -18 3 -17 20 1 27 -32 31 -51 5 -18 -24 -31 -9 -29 34 3 50 -26 148 -39
131 -5 -8 -10 -9 -13 -3 -17 40 -31 59 -44 61 -8 1 -19 3 -25 4 -28 6 -44 -1
-38 -17 10 -26 -51 40 -65 71 -6 14 -17 26 -24 26 -7 0 -31 16 -52 35 -21 20
-42 33 -45 29 -3 -4 0 -9 7 -11 19 -7 44 -61 32 -68 -6 -3 -25 4 -42 17 -40
28 -66 44 -98 59 -21 10 -22 12 -8 18 10 3 14 11 10 16 -13 20 -64 55 -72 50
-15 -9 -32 24 -24 47 4 13 7 26 6 30 -1 4 5 5 13 2 18 -7 20 7 4 23 -13 13
-39 6 -39 -11 0 -6 -13 -11 -29 -11 -16 0 -29 2 -28 5 3 11 -29 50 -40 50 -15
0 -17 -16 -4 -24 5 -3 11 -15 14 -27 5 -20 5 -20 -15 -2 -20 18 -21 18 -13 -6
5 -17 4 -22 -6 -19 -12 4 -21 48 -9 48 3 0 7 11 8 25 3 48 5 55 16 55 6 0 6 4
-1 11 -6 6 -9 26 -6 44 3 19 0 35 -6 39 -14 9 -14 26 -1 26 6 0 10 -6 10 -13
0 -7 9 -18 21 -25 24 -15 21 -8 -18 44 -12 17 -26 46 -30 65 -6 30 -5 33 10
21 14 -12 16 -9 19 20 l4 33 10 -35 c7 -22 8 -40 2 -47 -6 -7 -5 -20 2 -32 15
-29 22 -26 20 7 -3 44 -1 52 15 46 11 -5 15 1 15 19 0 32 19 46 32 23 14 -24
28 -19 28 10 0 22 2 25 15 14 12 -10 15 -10 15 3 0 9 -4 27 -10 41 -6 17 -6
34 1 48 9 22 9 22 5 -2 -3 -14 -1 -32 4 -40 14 -22 23 10 18 65 -2 25 1 45 6
45 4 0 6 10 3 22 -4 12 -2 27 3 33 6 8 -3 35 -26 79 l-36 67 23 25 c12 13 31
24 41 24 33 0 96 38 100 61 2 15 17 27 52 40 27 10 51 17 55 16 11 -3 51 28
51 39 0 31 171 22 285 -16 33 -11 72 -19 85 -19 14 1 30 1 35 -1 29 -7 38 1
17 16 -26 18 -29 36 -4 32 13 -2 17 4 17 32 0 19 4 41 8 48 5 7 4 12 -2 12 -6
0 -11 10 -11 23 -1 20 -2 20 -11 5 -24 -42 -74 4 -74 70 -1 23 3 42 7 42 4 0
8 5 8 10 0 6 -7 10 -15 10 -8 0 -22 11 -31 25 -24 38 -148 115 -183 115 -4 0
-48 -24 -99 -53z m-280 -469 c-7 -7 -12 -8 -12 -2 0 14 12 26 19 19 2 -3 -1
-11 -7 -17z m-102 -362 c0 -3 -4 -8 -10 -11 -5 -3 -10 -1 -10 4 0 6 5 11 10
11 6 0 10 -2 10 -4z m25 -16 c3 -5 1 -10 -4 -10 -6 0 -11 5 -11 10 0 6 2 10 4
10 3 0 8 -4 11 -10z m-196 -282 c10 -30 9 -31 -4 -14 -8 11 -15 26 -15 33 0
22 8 14 19 -19z m51 -50 c0 -4 -7 -8 -15 -8 -8 0 -15 4 -15 8 0 5 7 9 15 9 8
0 15 -4 15 -9z m-27 -38 c3 -11 1 -18 -4 -14 -5 3 -9 12 -9 20 0 20 7 17 13
-6z m-3 -57 c0 -3 -5 -3 -12 -1 -6 2 -13 17 -15 34 l-4 29 16 -29 c8 -15 15
-30 15 -33z m-77 -3 c3 -11 1 -18 -4 -14 -5 3 -9 12 -9 20 0 20 7 17 13 -6z
m216 -86 c17 -9 36 -24 42 -35 5 -11 14 -17 20 -14 5 4 9 1 9 -5 0 -6 5 -8 10
-5 6 3 10 1 10 -5 0 -6 18 -39 40 -72 22 -34 40 -66 40 -71 0 -4 4 -6 9 -3 13
9 16 -7 13 -64 -3 -41 -7 -48 -19 -41 -21 11 -53 -21 -53 -53 0 -29 -22 -48
-52 -46 -40 4 -53 1 -42 -10 12 -12 72 -16 102 -6 24 8 72 -15 72 -34 0 -24
-86 -54 -166 -58 -156 -8 -271 29 -387 126 -118 98 -137 128 -137 216 0 119
65 179 193 178 40 -1 95 5 122 13 57 17 128 12 174 -11z m256 -194 l20 -25
-22 19 c-13 11 -23 24 -23 29 0 6 1 8 3 6 1 -2 11 -15 22 -29z m-20 -10 c3 -5
-1 -10 -9 -10 -8 0 -18 5 -21 10 -3 6 1 10 9 10 8 0 18 -4 21 -10z m115 -91
c0 -6 -4 -7 -10 -4 -5 3 -10 11 -10 16 0 6 5 7 10 4 6 -3 10 -11 10 -16z m168
-54 c10 -18 11 -18 12 10 l1 30 14 -25 c23 -39 13 -147 -10 -110 -3 6 -7 24
-7 40 -1 18 -6 30 -14 30 -8 0 -11 -7 -8 -17 5 -15 3 -15 -10 2 -9 11 -14 25
-12 32 3 7 1 13 -4 13 -6 0 -10 -12 -11 -27 l0 -28 -11 25 c-6 14 -13 34 -15
45 -3 15 -1 17 9 7 17 -17 28 -15 28 4 0 13 2 13 13 2 7 -7 18 -22 25 -33z
m14 -147 c-13 -13 -24 5 -16 27 7 16 8 16 17 0 6 -11 6 -20 -1 -27z"/>
<path d="M443 3244 c-44 -22 -67 -74 -60 -135 6 -46 24 -89 39 -89 4 0 5 6 2
14 -3 7 4 28 15 47 11 18 18 36 16 40 -7 10 62 69 80 69 8 0 30 -13 48 -30 20
-17 46 -30 61 -30 31 0 32 -2 5 -56 -21 -45 -23 -105 -3 -111 7 -2 14 7 18 21
4 17 18 28 48 39 36 12 43 18 41 38 -2 13 -20 40 -41 59 -21 19 -46 47 -56 62
-22 33 -109 78 -150 78 -17 0 -45 -8 -63 -16z"/>
<path d="M796 3082 c-3 -5 -8 -39 -12 -75 -7 -66 -6 -67 17 -67 13 0 33 7 43
15 37 28 82 11 56 -20 -17 -20 9 -21 35 -1 17 12 18 17 6 39 -7 14 -25 27 -40
30 -17 4 -38 21 -56 46 -28 41 -39 48 -49 33z"/>
<path d="M589 2913 c45 -76 144 -117 196 -80 23 18 12 25 -62 38 -32 6 -78 22
-101 36 -37 21 -42 22 -33 6z"/>
<path d="M1622 4498 c7 -15 15 -23 17 -17 2 6 -4 18 -13 27 -15 15 -15 15 -4
-10z"/>
<path d="M1504 4071 c-5 -4 -35 -14 -67 -21 -49 -11 -63 -20 -90 -54 -17 -23
-37 -45 -44 -49 -7 -4 -13 -14 -13 -21 0 -8 -7 -19 -15 -26 -13 -11 -23 -100
-10 -100 19 0 55 27 55 41 0 9 19 37 43 61 35 37 50 45 82 46 22 1 52 4 67 7
28 7 68 -9 68 -26 0 -6 -4 -8 -9 -5 -5 4 -11 3 -13 -2 -1 -4 -25 -24 -53 -44
-74 -53 -124 -133 -112 -177 3 -11 0 -22 -7 -24 -7 -3 -8 -8 -1 -15 15 -17 27
-4 64 71 19 38 47 77 64 89 l31 23 -24 -40 c-13 -22 -34 -56 -47 -75 -29 -43
-31 -65 -4 -51 10 6 21 8 24 5 3 -3 11 14 17 37 12 45 44 89 65 89 6 0 27 -18
45 -40 27 -32 34 -50 36 -88 1 -26 -3 -53 -10 -61 -9 -12 -5 -13 29 -7 50 9
59 18 51 50 -5 19 -14 26 -39 29 l-32 4 33 1 c29 2 32 5 27 23 -5 15 -2 22 14
26 11 3 18 9 15 14 -2 5 7 11 21 15 17 4 24 11 21 21 -3 8 1 30 9 49 8 19 11
34 8 34 -3 0 0 6 6 14 10 11 9 24 0 55 -25 82 -99 131 -199 131 -32 0 -62 -5
-65 -10 -5 -8 -11 -8 -19 -1 -7 6 -17 7 -22 2z"/>
<path d="M1866 3983 c-10 -10 -7 -131 4 -138 6 -3 10 -1 10 4 0 6 5 10 12 9
20 -5 34 68 18 96 -13 26 -34 39 -44 29z"/>
<path d="M1870 3811 c0 -6 5 -13 10 -16 6 -3 10 1 10 9 0 9 -4 16 -10 16 -5 0
-10 -4 -10 -9z"/>
<path d="M832 3490 c7 -11 19 -22 28 -25 8 -4 4 5 -9 19 -29 31 -36 33 -19 6z"/>
<path d="M882 3470 c7 -11 16 -20 20 -20 5 0 3 9 -4 20 -7 11 -16 20 -20 20
-5 0 -3 -9 4 -20z"/>
<path d="M800 3435 c0 -8 2 -15 4 -15 2 0 12 -3 21 -7 15 -5 16 -3 6 15 -13
25 -31 29 -31 7z"/>
<path d="M922 3403 c2 -9 11 -17 20 -19 15 -2 16 1 8 17 -13 23 -33 25 -28 2z"/>
<path d="M1007 3220 c3 -11 9 -20 15 -20 5 0 4 9 -2 20 -6 11 -12 20 -14 20
-2 0 -2 -9 1 -20z"/>
<path d="M2895 2215 c-5 -3 -114 -13 -241 -24 -127 -11 -244 -25 -260 -32 -16
-6 -59 -12 -96 -12 -72 -1 -82 -6 -45 -22 12 -6 29 -24 38 -42 9 -18 28 -48
43 -67 14 -19 26 -46 26 -59 0 -33 -32 -122 -65 -180 -34 -61 -229 -244 -298
-279 -69 -37 -168 -51 -302 -44 -60 3 -168 8 -240 11 -268 12 -473 46 -583 96
-70 31 -115 66 -106 80 14 23 -13 5 -47 -30 -22 -24 -53 -44 -76 -50 -42 -12
-81 -47 -106 -97 -21 -41 -65 -78 -133 -111 -29 -14 -62 -35 -71 -45 -17 -19
-16 -21 6 -61 162 -288 434 -585 719 -787 534 -376 1220 -534 1850 -424 191
33 273 56 282 80 5 12 16 79 24 150 26 213 65 422 102 544 9 28 14 91 13 170
-1 114 3 160 18 230 2 14 6 97 9 185 7 305 14 389 51 588 13 76 14 91 2 102
-29 29 -243 116 -308 125 -65 9 -187 12 -206 5z"/>
<path d="M1608 2183 c7 -3 16 -2 19 1 4 3 -2 6 -13 5 -11 0 -14 -3 -6 -6z"/>
</g>
</svg>
